<?xml version="1.0" encoding="UTF-8"?><svg id="Calque_1" xmlns="http://www.w3.org/2000/svg" viewBox="0 0 969.39188 140.02499"><defs><style>.cls-1{fill:none;stroke:#403092;stroke-width:3.493px;}.cls-2{fill:#442683;}.cls-3{fill:#797a7d;}</style></defs><line class="cls-1" x1="615.05058" y1="4.0394" x2="615.05058" y2="140.0244"/><path class="cls-2" d="m216.10889,139.586c10.18201,0,19.81702-4.795,25.94803-12.967l1.42297-1.744-9.306-6.756-1.314,1.635c-6.89798,9.262-20.03598,11.115-29.34198,4.141-9.30701-6.974-11.168-19.942-4.16101-29.204,3.94199-5.23,10.18201-8.391,16.75198-8.391,6.569-.108,12.81003,3.052,16.75101,8.391l1.314,1.743,9.306-6.864-1.42297-1.744c-2.95602-4.032-6.89801-7.301-11.38602-9.589-15.98499-8.064-35.58398-1.635-43.685,14.275-2.29999,4.467-3.504,9.48-3.504,14.602,0,4.358.87601,8.608,2.62799,12.64,1.53201,3.923,3.94101,7.409,7.00702,10.352,6.13098,6.102,14.452,9.48,22.99197,9.48Zm49.707-40.754h-11.38699v39.773h11.38699v-39.773Zm-5.694-4.795c3.72302,0,6.67902-2.942,6.67902-6.647s-2.95599-6.647-6.67902-6.647c-1.75098,0-3.50299.763-4.81699,1.962-1.314,1.198-2.08099,2.942-1.97101,4.685.11002,3.705,3.06601,6.647,6.78799,6.647m46.09399,44.568l-2.84698-10.025h-7.55499c-2.189-.218-3.83099-1.961-3.83099-4.141v-16.345h11.60498v-8.935h-11.60498v-15.691h-10.40201v15.691h-5.58301v8.935h5.58301v16.563c0,3.705,1.42401,7.301,4.05099,10.025,2.62799,2.616,6.241,4.141,10.073,4.032l10.51099-.109Zm19.81702-39.773h-11.38602v39.773h11.38602v-39.773Zm-5.58401-4.795c3.72202,0,6.67801-2.942,6.67801-6.647s-2.95599-6.647-6.67801-6.647c-1.75198,0-3.504.763-4.81699,1.962-1.314,1.198-2.08099,2.942-1.97101,4.685,0,3.705,3.065,6.647,6.78799,6.647m34.81601,45.549c3.61301,0,7.22699-.981,10.401-2.833h.10999c1.31403-.763,2.40903-1.635,3.50403-2.615l1.31299-1.09-7.22501-6.211-.98599.762c-1.97101,1.744-4.38,2.834-7.00702,3.161h-.10999c-4.48801,0-8.64899-3.923-9.74399-9.263l-.10901-.653h29.34201v-1.962c0-1.852-.21902-3.596-.65701-5.339-.76599-3.378-2.51801-6.538-4.927-9.154-1.75198-1.961-3.832-3.487-6.241-4.576-2.40799-1.09-5.03601-1.744-7.664-1.635-2.62701,0-5.255.545-7.664,1.635-2.40799,1.089-4.48901,2.615-6.23999,4.576-2.409,2.507-4.05099,5.667-4.81799,9.154-.43802,1.743-.65701,3.596-.65701,5.339.10999,5.34,2.08099,10.461,5.47501,14.602,1.75098,1.961,3.94098,3.487,6.241,4.468,2.29898.98,4.92599,1.634,7.66299,1.634Zm0-32.581c3.39401,0,6.67899,2.288,8.759,5.993l.32901.654h-18.06601l.32901-.654c1.86099-3.705,5.25497-5.993,8.64899-5.993m40.83899,31.927c2.51801,0,4.92603-.436,7.22601-1.525,2.19-.981,4.16-2.616,5.58398-4.577,1.31302-1.961,2.08002-4.25,1.97-6.647.11002-2.288-.65698-4.577-1.97-6.538-1.20499-1.526-2.62799-2.724-4.37997-3.705-2.95602-1.09-6.022-1.961-9.08701-2.615-4.48901-1.09-5.36502-1.962-5.36502-3.16.21902-.981.87601-1.744,1.75201-2.18.98499-.436,2.07999-.654,3.17499-.654,2.62701.109,5.255,1.09,7.22601,2.834l1.20401.98,6.241-7.083-1.314-1.089c-3.17502-2.398-6.89801-4.032-10.83902-4.686-.87601-.109-1.86099-.218-2.84698-.218-2.40802-.109-4.81702.436-7.00702,1.417-2.07999.871-3.832,2.397-5.25497,4.14-2.62802,3.597-2.84702,8.391-.54703,12.205,1.09402,1.743,2.51801,3.16,4.379,4.141,1.423.763,4.37903,1.743,9.08701,2.724,5.146.872,5.80301,2.179,5.80301,3.269,0,1.198-.76599,2.288-1.97101,2.615-1.095.545-2.29898.763-3.61301.654-1.96997,0-5.146-.654-8.978-3.814l-1.20398-1.09-6.569,7.192,1.314,1.09c3.285,2.833,7.33499,4.795,11.71399,5.667,1.53302.544,2.84702.653,4.271.653Zm88.026-.327v-11.333h-31.64099v-50.561h-11.715v61.894h43.35599Zm25.94699.763c3.17603,0,6.68097-.436,9.85699-3.487l.43597-.436v3.16h10.51105v-39.773h-10.51105v3.487l-.43597-.327c-2.62897-2.506-6.24097-3.923-9.85699-3.923-5.47198,0-10.836,2.071-14.77798,5.993-8.104,8.064-8.211,21.14-.11099,29.204,3.94098,3.923,9.306,6.102,14.88898,6.102m0-31.165c5.80499-.109,10.73297,4.468,10.84003,10.243.11096,5.776-4.48804,10.679-10.293,10.788-5.80103.109-10.73001-4.468-10.83603-10.243v-.218c0-5.775,4.59903-10.461,10.289-10.57m52.11597,31.165c11.49902,0,20.80402-9.262,20.91101-20.704,0-5.557-2.18799-10.788-6.13-14.711-3.94098-3.922-9.19897-5.993-14.78101-5.993-3.724,0-7.224,1.417-9.85297,3.923l-.43597.327v-27.35099h-10.51105v63.74599h10.51105v-3.16l.43597.436c3.065,3.051,6.677,3.487,9.85297,3.487m-10.28894-20.704c0-5.775,4.70599-10.57,10.61798-10.57,5.80499,0,10.62201,4.686,10.62201,10.57,0,5.775-4.71002,10.57-10.62201,10.57s-10.61798-4.686-10.61798-10.57"/><path class="cls-2" d="m241.8375,63.8558L217.8605,2.07082h-10.511l-23.867,61.89399h12.371l6.46002-16.672h20.58299l6.351,16.672,12.59-.109Zm-35.035-28.114l5.80301-15.037,5.802,15.037h-11.60501Zm56.27499,28.114v-30.51099h11.60599v-8.93501h-11.60599v-10.135c0-2.17899,1.64301-3.92199,3.83301-4.031h7.664L277.42051.00081h-10.62003c-3.72299,0-7.44498,1.52499-10.07199,4.03101-2.62799,2.616-4.161,6.21199-4.05199,10.02599v10.243h-5.69301v8.93501h5.69301v30.511l10.40099.10899Zm32.08002,0v-21.14c.21899-5.012,4.37997-8.935,9.306-8.826h1.64297l2.62701-10.897h-2.62701c-3.17499,0-7.883,1.09-10.94897,4.141v-3.05099h-10.94901v39.77299h10.94901Zm33.50299-39.77299h-11.38602v39.77299h11.38602V24.08281Zm-5.69299-4.79501c3.72198,0,6.67798-2.94199,6.67798-6.647s-2.95599-6.647-6.67798-6.647c-1.75302,0-3.504.763-4.81802,1.961-1.314,1.19901-2.07999,2.942-1.97098,4.686,0,3.705,3.06598,6.647,6.789,6.647m35.14398,45.44c5.47501,0,10.83899-2.071,14.78101-5.994.548-.54501,1.095-1.089,1.53299-1.634.21899-.218.43802-.545.65701-.763l1.314-1.634-8.86899-6.32-1.095,1.525c-1.86102,2.833-4.81702,4.577-8.211,4.686-5.91302.327-10.94901-4.25-11.168-10.025-.328-5.885,4.26999-10.897,10.073-11.11501,3.72299-.21799,7.22598,1.525,9.306,4.468l1.20499,1.634,8.54001-6.32-1.095-1.526c-.65701-.871-1.42401-1.634-2.19-2.397-3.832-3.923-9.19699-6.102-14.78101-5.993-11.60501,0-20.91098,9.37099-20.802,20.922,0,5.448,2.19,10.679,6.022,14.492l.10901.109c3.94199,3.814,9.19699,5.88499,14.67099,5.88499Zm42.48099-.109c3.17502,0,6.67902-.436,9.854-3.487l.43802-.436v3.16h10.50998V24.08281h-10.50998v3.487l-.43802-.327c-2.62799-2.507-6.241-3.923-9.854-3.923-5.47498,0-10.83899,2.07-14.78098,5.993-8.10202,8.064-8.211,21.14-.10901,29.203,3.94101,3.923,9.306,6.212,14.88998,6.103Zm0-31.165c5.80301-.10899,10.73001,4.468,10.83902,10.243.10898,5.775-4.48901,10.679-10.29102,10.788-5.80298.109-10.72998-4.468-10.84-10.243v-.218c0-5.77599,4.599-10.352,10.29199-10.57m70.50803,30.402v-21.249c.11099-10.57-8.42902-19.17799-19.05002-19.28699h-.43698c-3.17603,0-6.24103,1.307-8.431,3.596v-2.833h-10.94803v39.77299h10.94803v-21.249c.10999-4.576,3.83197-8.281,8.431-8.39,4.59799-.10899,8.42999,3.596,8.42999,8.172v21.358h11.05701v.10899Z"/><polygon class="cls-2" points="96.895 0 37.77299 60.369 77.62599 101.014 117.369 60.369 97.44299 39.991 77.51599 60.369 97.55199 60.369 77.62599 80.745 57.699 60.369 96.895 20.37801 136.091 60.369 77.62599 120.083 19.16 60.369 0 60.369 77.95499 140.02499 155.908 60.369 96.895 0"/><path class="cls-3" d="m660.78928,53.43031l18.68994-15.321c6.979-5.776,9.70703-8.824,9.70703-13.477,0-4.733-3.12903-7.3-7.53998-7.3-4.33203,0-7.30005,2.407-11.47205,7.541l-8.66296-6.979c5.53497-7.54,10.909-11.632,20.93701-11.632,11.63098,0,19.33197,6.81899,19.33197,17.327v.161c0,9.385-4.81299,14.037-14.76001,21.73801l-9.14496,7.059h24.46594v10.669h-41.55194v-9.786Z"/><path class="cls-3" d="m747.42167,35.301v-.16c0-10.188-4.974-17.889-12.354-17.889s-12.19299,7.461-12.19299,17.728v.161c0,10.267,4.89301,17.888,12.354,17.888,7.45905,0,12.19299-7.54,12.19299-17.728m-37.22095,0v-.16c0-16.284,10.10699-29.039,25.02795-29.039,14.84003,0,24.86603,12.594,24.86603,28.878v.161c0,16.284-10.026,29.038-25.02704,29.038-15,0-24.86694-12.594-24.86694-28.87801"/><path class="cls-3" d="m766.59129,53.43031l18.68994-15.321c6.979-5.776,9.70703-8.824,9.70703-13.477,0-4.733-3.12903-7.3-7.53998-7.3-4.33203,0-7.30005,2.407-11.47205,7.541l-8.66296-6.979c5.53497-7.54,10.909-11.632,20.93701-11.632,11.63098,0,19.33197,6.81899,19.33197,17.327v.161c0,9.385-4.81299,14.037-14.76001,21.73801l-9.14496,7.059h24.46594v10.669h-41.55194v-9.786Z"/><path class="cls-3" d="m814.71922,54.4728l8.50299-8.102c3.84998,4.332,7.86096,6.738,13.55597,6.738,4.65302,0,7.94202-2.647,7.94202-6.818v-.161c0-4.572-4.091-7.139-10.98999-7.139h-5.13403l-1.92499-7.861,13.396-13.47601h-22.05902V7.0648h37.94202v9.305l-14.198,13.557c7.62103,1.283,15.08099,5.294,15.08099,15.722v.161c0,10.588-7.70099,18.37-20.21497,18.37-10.10699,0-17.086-4.01199-21.89899-9.707"/><path class="cls-2" d="m661.03672,128.4354l3.862-4.572c5.75397,5.203,11.27197,7.804,18.91797,7.804,7.40997,0,12.297-3.941,12.297-9.38v-.158c0-5.123-2.75897-8.04-14.34601-10.484-12.69098-2.758-18.52399-6.857-18.52399-15.922v-.158c0-8.67,7.646-15.055,18.12903-15.055,8.04095,0,13.79498,2.286,19.39099,6.779l-3.62604,4.808c-5.12299-4.177-10.24701-5.99-15.922-5.99-7.17297,0-11.745,3.941-11.745,8.907v.157c0,5.203,2.83704,8.119,14.97699,10.721,12.29602,2.68,17.97205,7.173,17.97205,15.607v.157c0,9.459-7.883,15.608-18.84003,15.608-8.74902,0-15.922-2.917-22.54297-8.829"/><path class="cls-2" d="m713.29679,113.3801v-32.082h6.22699v31.688c0,11.903,6.38501,18.603,16.86798,18.603,10.16901,0,16.63202-6.149,16.63202-18.209v-32.082h6.22797v31.609c0,16.08-9.22296,24.435-23.01697,24.435-13.63702,0-22.93799-8.355-22.93799-23.962"/><polygon class="cls-2" points="773.04368 81.2986 779.34965 81.2986 799.44962 111.4096 819.54966 81.2986 825.85563 81.2986 825.85563 136.4756 819.62864 136.4756 819.62864 91.7826 799.52866 121.3416 799.21262 121.3416 779.11265 91.8616 779.11265 136.4756 773.04368 136.4756 773.04368 81.2986"/><polygon class="cls-2" points="840.51652 81.2986 846.82249 81.2986 866.92246 111.4096 887.0225 81.2986 893.32847 81.2986 893.32847 136.4756 887.10148 136.4756 887.10148 91.7826 867.0015 121.3416 866.68546 121.3416 846.58549 91.8616 846.58549 136.4756 840.51652 136.4756 840.51652 81.2986"/><rect class="cls-2" x="908.54111" y="81.2986" width="6.22699" height="55.177"/><polygon class="cls-2" points="926.03892 81.29881 926.03892 87.05281 944.5629 87.05281 944.5629 136.4758 950.86887 136.4758 950.86887 87.05281 969.39188 87.05281 969.39188 81.29881 926.03892 81.29881"/></svg>
