<?xml version="1.0" standalone="no"?>
<!DOCTYPE svg PUBLIC "-//W3C//DTD SVG 20010904//EN"
 "http://www.w3.org/TR/2001/REC-SVG-20010904/DTD/svg10.dtd">
<svg version="1.0" xmlns="http://www.w3.org/2000/svg"
 width="512.000000pt" height="512.000000pt" viewBox="0 0 512.000000 512.000000"
 preserveAspectRatio="xMidYMid meet">
<metadata>
Created by potrace 1.14, written by Peter Selinger 2001-2017
</metadata>
<g transform="translate(0.000000,512.000000) scale(0.100000,-0.100000)"
fill="#000000" stroke="none">
<path d="M3135 4810 c-4 -11 -13 -20 -21 -20 -8 0 -14 -4 -14 -9 0 -5 -82 -92
-182 -194 -101 -102 -307 -312 -458 -467 -151 -154 -355 -363 -452 -462 -98
-100 -178 -185 -178 -190 0 -4 -5 -8 -12 -8 -12 0 -68 -59 -68 -72 0 -4 -7 -8
-15 -8 -8 0 -15 -4 -15 -8 0 -5 -108 -118 -240 -253 -132 -134 -239 -249 -238
-256 3 -12 228 -244 766 -790 133 -135 242 -246 242 -247 0 -1 63 -65 140
-143 l140 -141 88 88 c48 49 204 208 347 355 143 147 333 342 423 433 90 92
221 226 291 297 70 72 131 136 135 143 8 13 -20 43 -366 393 -76 76 -138 144
-138 149 0 6 -4 10 -9 10 -4 0 -35 27 -67 59 l-59 60 -176 -180 c-96 -98 -173
-181 -171 -184 3 -3 -3 -5 -13 -5 -10 0 -16 -2 -13 -5 2 -3 -57 -67 -133 -144
-76 -77 -132 -141 -126 -143 7 -2 150 -4 320 -3 169 0 306 -3 305 -7 -2 -4
-115 -123 -253 -264 -345 -354 -375 -384 -385 -384 -4 0 -57 51 -118 113 -380
387 -507 517 -502 518 3 0 -3 4 -13 8 -17 6 -16 11 15 48 18 22 45 49 60 59
15 10 26 21 25 24 0 3 82 89 183 191 102 103 312 317 467 475 476 488 513 525
513 514 0 -5 7 -10 15 -10 8 0 15 -3 15 -8 0 -4 118 -127 263 -274 144 -147
384 -391 532 -543 149 -152 309 -316 358 -365 48 -49 87 -92 87 -95 0 -4 -39
-47 -87 -95 -49 -49 -210 -214 -360 -367 -149 -153 -346 -354 -437 -446 -91
-93 -166 -173 -166 -178 0 -5 -3 -9 -7 -9 -8 0 -113 -97 -113 -103 0 -3 -119
-125 -527 -540 l-204 -208 -149 153 c-82 84 -226 231 -320 327 -93 95 -170
177 -170 182 0 5 -5 9 -11 9 -12 0 -69 60 -69 73 0 4 -4 6 -9 3 -5 -4 -11 -2
-13 4 -1 5 -124 134 -273 286 -148 151 -350 357 -447 457 -98 100 -182 187
-188 192 -9 9 -48 49 -158 161 -18 19 -37 34 -42 34 -6 0 -10 6 -10 14 0 7
-12 22 -28 32 -25 17 -53 18 -329 19 -167 0 -303 -2 -303 -5 0 -3 89 -96 198
-207 434 -444 736 -754 917 -938 105 -106 323 -329 485 -495 162 -167 365
-374 450 -460 85 -87 228 -233 318 -324 l163 -166 127 129 c70 71 267 272 437
446 171 175 375 384 455 465 422 430 715 732 718 741 2 5 10 9 18 9 8 0 14 4
14 8 0 7 95 106 377 395 42 42 80 77 86 77 6 0 8 2 5 5 -3 3 64 76 149 162
150 153 153 157 136 176 -10 11 -58 62 -108 112 -81 82 -263 269 -961 984
-121 123 -288 293 -371 379 -84 85 -153 159 -153 163 0 5 -5 9 -11 9 -6 0 -27
18 -46 40 -59 67 -249 255 -261 257 -6 2 -14 -6 -17 -17z"/>
</g>
</svg>
